<svg width="202" height="20" viewBox="0 0 202 20" fill="none" xmlns="http://www.w3.org/2000/svg">
<path d="M11.424 2.248V14.008C11.424 15.64 10.952 16.912 10.008 17.824C9.064 18.72 7.8 19.168 6.216 19.168C4.616 19.168 3.32 18.704 2.328 17.776C1.352 16.848 0.864 15.552 0.864 13.888H4.224C4.24 14.608 4.408 15.168 4.728 15.568C5.064 15.968 5.544 16.168 6.168 16.168C6.776 16.168 7.24 15.976 7.56 15.592C7.88 15.208 8.04 14.68 8.04 14.008V2.248H11.424ZM14.4795 12.304C14.4795 10.96 14.7435 9.768 15.2715 8.728C15.8155 7.688 16.5435 6.888 17.4555 6.328C18.3835 5.768 19.4155 5.488 20.5515 5.488C21.5435 5.488 22.4075 5.688 23.1435 6.088C23.8955 6.488 24.4955 6.992 24.9435 7.6V5.704H28.3275V19H24.9435V17.056C24.5115 17.68 23.9115 18.2 23.1435 18.616C22.3915 19.016 21.5195 19.216 20.5275 19.216C19.4075 19.216 18.3835 18.928 17.4555 18.352C16.5435 17.776 15.8155 16.968 15.2715 15.928C14.7435 14.872 14.4795 13.664 14.4795 12.304ZM24.9435 12.352C24.9435 11.536 24.7835 10.84 24.4635 10.264C24.1435 9.672 23.7115 9.224 23.1675 8.92C22.6235 8.6 22.0395 8.44 21.4155 8.44C20.7915 8.44 20.2155 8.592 19.6875 8.896C19.1595 9.2 18.7275 9.648 18.3915 10.24C18.0715 10.816 17.9115 11.504 17.9115 12.304C17.9115 13.104 18.0715 13.808 18.3915 14.416C18.7275 15.008 19.1595 15.464 19.6875 15.784C20.2315 16.104 20.8075 16.264 21.4155 16.264C22.0395 16.264 22.6235 16.112 23.1675 15.808C23.7115 15.488 24.1435 15.04 24.4635 14.464C24.7835 13.872 24.9435 13.168 24.9435 12.352ZM30.7451 12.352C30.7451 10.976 31.0251 9.776 31.5851 8.752C32.1451 7.712 32.9211 6.912 33.9131 6.352C34.9051 5.776 36.0411 5.488 37.3211 5.488C38.9691 5.488 40.3291 5.904 41.4011 6.736C42.4891 7.552 43.2171 8.704 43.5851 10.192H39.9611C39.7691 9.616 39.4411 9.168 38.9771 8.848C38.5291 8.512 37.9691 8.344 37.2971 8.344C36.3371 8.344 35.5771 8.696 35.0171 9.4C34.4571 10.088 34.1771 11.072 34.1771 12.352C34.1771 13.616 34.4571 14.6 35.0171 15.304C35.5771 15.992 36.3371 16.336 37.2971 16.336C38.6571 16.336 39.5451 15.728 39.9611 14.512H43.5851C43.2171 15.952 42.4891 17.096 41.4011 17.944C40.3131 18.792 38.9531 19.216 37.3211 19.216C36.0411 19.216 34.9051 18.936 33.9131 18.376C32.9211 17.8 32.1451 17 31.5851 15.976C31.0251 14.936 30.7451 13.728 30.7451 12.352ZM51.9506 19.216C50.6706 19.216 49.5186 18.936 48.4946 18.376C47.4706 17.8 46.6626 16.992 46.0706 15.952C45.4946 14.912 45.2066 13.712 45.2066 12.352C45.2066 10.992 45.5026 9.792 46.0946 8.752C46.7026 7.712 47.5266 6.912 48.5666 6.352C49.6066 5.776 50.7666 5.488 52.0466 5.488C53.3266 5.488 54.4866 5.776 55.5266 6.352C56.5666 6.912 57.3826 7.712 57.9746 8.752C58.5826 9.792 58.8866 10.992 58.8866 12.352C58.8866 13.712 58.5746 14.912 57.9506 15.952C57.3426 16.992 56.5106 17.8 55.4546 18.376C54.4146 18.936 53.2466 19.216 51.9506 19.216ZM51.9506 16.288C52.5586 16.288 53.1266 16.144 53.6546 15.856C54.1986 15.552 54.6306 15.104 54.9506 14.512C55.2706 13.92 55.4306 13.2 55.4306 12.352C55.4306 11.088 55.0946 10.12 54.4226 9.448C53.7666 8.76 52.9586 8.416 51.9986 8.416C51.0386 8.416 50.2306 8.76 49.5746 9.448C48.9346 10.12 48.6146 11.088 48.6146 12.352C48.6146 13.616 48.9266 14.592 49.5506 15.28C50.1906 15.952 50.9906 16.288 51.9506 16.288ZM64.7113 7.648C65.1433 7.008 65.7353 6.488 66.4873 6.088C67.2553 5.688 68.1273 5.488 69.1033 5.488C70.2393 5.488 71.2633 5.768 72.1753 6.328C73.1033 6.888 73.8313 7.688 74.3593 8.728C74.9033 9.752 75.1753 10.944 75.1753 12.304C75.1753 13.664 74.9033 14.872 74.3593 15.928C73.8313 16.968 73.1033 17.776 72.1753 18.352C71.2633 18.928 70.2393 19.216 69.1033 19.216C68.1113 19.216 67.2393 19.024 66.4873 18.64C65.7513 18.24 65.1593 17.728 64.7113 17.104V19H61.3513V1.24H64.7113V7.648ZM71.7433 12.304C71.7433 11.504 71.5753 10.816 71.2393 10.24C70.9193 9.648 70.4873 9.2 69.9433 8.896C69.4153 8.592 68.8393 8.44 68.2153 8.44C67.6073 8.44 67.0313 8.6 66.4873 8.92C65.9593 9.224 65.5273 9.672 65.1913 10.264C64.8713 10.856 64.7113 11.552 64.7113 12.352C64.7113 13.152 64.8713 13.848 65.1913 14.44C65.5273 15.032 65.9593 15.488 66.4873 15.808C67.0313 16.112 67.6073 16.264 68.2153 16.264C68.8393 16.264 69.4153 16.104 69.9433 15.784C70.4873 15.464 70.9193 15.008 71.2393 14.416C71.5753 13.824 71.7433 13.12 71.7433 12.304ZM101.6 2.248V19H98.2397V8.104L93.7517 19H91.2077L86.6957 8.104V19H83.3357V2.248H87.1517L92.4797 14.704L97.8077 2.248H101.6ZM104.058 12.352C104.058 10.976 104.338 9.776 104.898 8.752C105.458 7.712 106.234 6.912 107.226 6.352C108.218 5.776 109.354 5.488 110.634 5.488C112.282 5.488 113.642 5.904 114.714 6.736C115.802 7.552 116.53 8.704 116.898 10.192H113.274C113.082 9.616 112.754 9.168 112.29 8.848C111.842 8.512 111.282 8.344 110.61 8.344C109.65 8.344 108.89 8.696 108.33 9.4C107.77 10.088 107.49 11.072 107.49 12.352C107.49 13.616 107.77 14.6 108.33 15.304C108.89 15.992 109.65 16.336 110.61 16.336C111.97 16.336 112.858 15.728 113.274 14.512H116.898C116.53 15.952 115.802 17.096 114.714 17.944C113.626 18.792 112.266 19.216 110.634 19.216C109.354 19.216 108.218 18.936 107.226 18.376C106.234 17.8 105.458 17 104.898 15.976C104.338 14.936 104.058 13.728 104.058 12.352ZM129.631 15.808H122.959L121.855 19H118.327L124.351 2.224H128.263L134.287 19H130.735L129.631 15.808ZM128.719 13.12L126.295 6.112L123.871 13.12H128.719ZM139.899 1.24V19H136.539V1.24H139.899ZM146.579 1.24V19H143.219V1.24H146.579ZM151.602 4.12C151.01 4.12 150.514 3.936 150.114 3.568C149.73 3.184 149.538 2.712 149.538 2.152C149.538 1.592 149.73 1.128 150.114 0.759999C150.514 0.375999 151.01 0.183999 151.602 0.183999C152.194 0.183999 152.682 0.375999 153.066 0.759999C153.466 1.128 153.666 1.592 153.666 2.152C153.666 2.712 153.466 3.184 153.066 3.568C152.682 3.936 152.194 4.12 151.602 4.12ZM153.258 5.704V19H149.898V5.704H153.258ZM161.666 19.216C160.578 19.216 159.602 19.024 158.738 18.64C157.874 18.24 157.186 17.704 156.674 17.032C156.178 16.36 155.906 15.616 155.858 14.8H159.242C159.306 15.312 159.554 15.736 159.986 16.072C160.434 16.408 160.986 16.576 161.642 16.576C162.282 16.576 162.778 16.448 163.13 16.192C163.498 15.936 163.682 15.608 163.682 15.208C163.682 14.776 163.458 14.456 163.01 14.248C162.578 14.024 161.882 13.784 160.922 13.528C159.93 13.288 159.114 13.04 158.474 12.784C157.85 12.528 157.306 12.136 156.842 11.608C156.394 11.08 156.17 10.368 156.17 9.472C156.17 8.736 156.378 8.064 156.794 7.456C157.226 6.848 157.834 6.368 158.618 6.016C159.418 5.664 160.354 5.488 161.426 5.488C163.01 5.488 164.274 5.888 165.218 6.688C166.162 7.472 166.682 8.536 166.778 9.88H163.562C163.514 9.352 163.29 8.936 162.89 8.632C162.506 8.312 161.986 8.152 161.33 8.152C160.722 8.152 160.25 8.264 159.914 8.488C159.594 8.712 159.434 9.024 159.434 9.424C159.434 9.872 159.658 10.216 160.106 10.456C160.554 10.68 161.25 10.912 162.194 11.152C163.154 11.392 163.946 11.64 164.57 11.896C165.194 12.152 165.73 12.552 166.178 13.096C166.642 13.624 166.882 14.328 166.898 15.208C166.898 15.976 166.682 16.664 166.25 17.272C165.834 17.88 165.226 18.36 164.426 18.712C163.642 19.048 162.722 19.216 161.666 19.216ZM173.568 8.464V14.896C173.568 15.344 173.672 15.672 173.88 15.88C174.104 16.072 174.472 16.168 174.984 16.168H176.544V19H174.432C171.6 19 170.184 17.624 170.184 14.872V8.464H168.6V5.704H170.184V2.416H173.568V5.704H176.544V8.464H173.568ZM191.321 12.064C191.321 12.544 191.289 12.976 191.225 13.36H181.505C181.585 14.32 181.921 15.072 182.513 15.616C183.105 16.16 183.833 16.432 184.697 16.432C185.945 16.432 186.833 15.896 187.361 14.824H190.985C190.601 16.104 189.865 17.16 188.777 17.992C187.689 18.808 186.353 19.216 184.769 19.216C183.489 19.216 182.337 18.936 181.313 18.376C180.305 17.8 179.513 16.992 178.937 15.952C178.377 14.912 178.097 13.712 178.097 12.352C178.097 10.976 178.377 9.768 178.937 8.728C179.497 7.688 180.281 6.888 181.289 6.328C182.297 5.768 183.457 5.488 184.769 5.488C186.033 5.488 187.161 5.76 188.153 6.304C189.161 6.848 189.937 7.624 190.481 8.632C191.041 9.624 191.321 10.768 191.321 12.064ZM187.841 11.104C187.825 10.24 187.513 9.552 186.905 9.04C186.297 8.512 185.553 8.248 184.673 8.248C183.841 8.248 183.137 8.504 182.561 9.016C182.001 9.512 181.657 10.208 181.529 11.104H187.841ZM197.133 7.768C197.565 7.064 198.125 6.512 198.813 6.112C199.517 5.712 200.317 5.512 201.213 5.512V9.04H200.325C199.269 9.04 198.469 9.288 197.925 9.784C197.397 10.28 197.133 11.144 197.133 12.376V19H193.773V5.704H197.133V7.768Z" fill="url(#paint0_linear)"/>
<defs>
<linearGradient id="paint0_linear" x1="138.986" y1="-7" x2="26.9839" y2="-7" gradientUnits="userSpaceOnUse">
<stop stop-color="#DD16BD"/>
<stop offset="1" stop-color="#FF5C00"/>
</linearGradient>
</defs>
</svg>
